<?xml version="1.0" standalone="no"?>
<!DOCTYPE svg PUBLIC "-//W3C//DTD SVG 20010904//EN"
 "http://www.w3.org/TR/2001/REC-SVG-20010904/DTD/svg10.dtd">
<svg version="1.0" xmlns="http://www.w3.org/2000/svg"
 width="48.000000pt" height="48.000000pt" viewBox="0 0 48.000000 48.000000"
 preserveAspectRatio="xMidYMid meet">

<g transform="translate(0.000000,48.000000) scale(0.100000,-0.100000)"
fill="#000000" stroke="none">
<path d="M320 450 c-7 -18 -22 -33 -36 -36 -13 -3 -24 -10 -24 -14 0 -4 11
-11 24 -14 14 -3 29 -18 36 -36 15 -36 27 -39 32 -7 2 13 15 28 35 37 18 8 33
17 33 20 0 3 -15 12 -33 20 -20 9 -33 24 -35 38 -5 31 -17 28 -32 -8z"/>
<path d="M147 410 c-152 -46 -191 -269 -65 -363 113 -83 255 -50 319 76 24 46
19 57 -27 57 -100 0 -180 92 -172 196 3 42 -7 49 -55 34z m17 -81 c15 -91 83
-169 161 -183 40 -8 42 -12 19 -45 -21 -29 -89 -60 -132 -61 -107 0 -193 112
-163 212 13 40 77 118 99 118 5 0 12 -18 16 -41z"/>
<path d="M403 284 l-22 -24 25 -25 c29 -29 34 -30 34 -10 0 7 8 19 18 25 16
10 16 10 0 20 -10 6 -18 18 -18 25 0 21 -11 17 -37 -11z"/>
</g>
</svg>
