<svg width="64" height="64" viewBox="0 0 64 64" fill="none" xmlns="http://www.w3.org/2000/svg">
<path d="M42.6667 4.00002C42 6 39.7303 8.38589 37.8667 8.80002C36.1301 9.18591 34.6667 10.1334 34.6667 10.6667C34.6667 11.2 36.1301 12.1475 37.8667 12.5334C39.7303 12.9475 41.6951 14.9486 42.6667 17.3334C44.5679 22 45.5 22 47 17.5C47.5546 15.8363 48.9307 14.5275 51.6 13.3334C53.9974 12.2608 55.5 11.5 55.5 10.6667C55.5 9.83337 53.9974 9.07254 51.6 8.00002C49.2026 6.9275 47.5 6 47 4.00002C45.7339 -1.06429 44.374 -1.12196 42.6667 4.00002Z" fill="black"/>
<path d="M19.6333 9.16667C2.5 14.5 -5.83334 45.0333 10.9667 57.5667C26.0333 68.6333 44.9667 64.2333 53.5 47.4333C57.0217 40.5 57 39.8333 49.9 39.8333C36.5667 39.8333 25.9 27.5667 26.9666 13.7C27.3666 8.1 27.7303 6.64621 19.6333 9.16667ZM21.9 19.9667C23.9 32.1 32.9667 42.5 43.3667 44.3667C48.7 45.4333 48.9667 45.9667 45.9 50.3667C43.1 54.2333 34.0333 58.3667 28.3 58.5C14.0333 58.5 3 43.8333 7 30.5C8.73333 25.1667 16.8333 14.5 19.7666 14.5C20.4333 14.5 21.3666 16.9 21.9 19.9667Z" fill="black"/>
<path d="M55.5 25C54.6579 26.5439 55 26.5 52.5 27.5C49.7931 28.5828 49.793 29.4172 52.5 30.5C55.207 31.5828 55 31 55.5 33C56.25 36 57.7394 36.0422 58.5 33C59 31 58.9665 30.8389 61 30.5C64.2066 29.9656 64.2003 28.2967 61.0667 27.5C58.6957 26.8972 59 26 58.5 25C57.2832 21.3497 57.5 21.3333 55.5 25Z" fill="black"/>
</svg>
