<svg width="64" height="64" viewBox="0 0 64 64" fill="none" xmlns="http://www.w3.org/2000/svg">
<path d="M29.8667 1.86666C28.6667 4.93332 29.8667 8.66666 32 8.66666C33.3333 8.66666 34 7.33332 34 4.79999C34 0.533323 31.2 -1.46668 29.8667 1.86666Z" fill="black"/>
<path d="M9.6 9.73333C8.4 11.2 8.66667 12.2667 11.2 14.5333C13.7333 16.9333 14.5333 17.0667 15.7333 15.6C16.9333 14.1333 16.6667 13.0667 14.1333 10.8C11.6 8.4 10.8 8.26666 9.6 9.73333Z" fill="black"/>
<path d="M48.9333 11.7333C47.2 13.6 47.0667 14.5333 48.2667 15.7333C49.4667 16.9333 50.4 16.8 52.2667 15.0667C55.0667 12.5333 55.4667 9.33333 52.9333 9.33333C51.8667 9.33333 50.1333 10.4 48.9333 11.7333Z" fill="black"/>
<path d="M26.1333 13.3333C12 17.6 8 36.5333 19.2 46.4C27.0667 53.3333 38 53.0667 45.6 45.7333C56.1333 35.6 51.5 17 38.5 13.3333C33.3 11.8667 31.3333 11.8667 26.1333 13.3333ZM39 20C43.1333 21.8667 45.6 26.5 45.6 30.5C45.6 31.4333 45 37 43.5 40C40.9667 45.4667 34.9667 46.9333 29.5 45.7333C24.5667 44.6667 19.5667 39.4333 18.5 34.5C17.3 29.1667 20.9333 22 26.1333 19.4667C31.4667 16.8 33.5333 17.3333 39 20Z" fill="black"/>
<path d="M1.32 31.1484C0.786667 32.0818 0.92 33.2818 1.72 34.0818C3.58667 35.9484 9.32 34.8818 9.32 32.4818C9.32 30.0818 2.65333 29.0151 1.32 31.1484Z" fill="black"/>
<path d="M55.3333 30.6667C54.8 31.6 54.9333 32.8 55.7333 33.6C57.6 35.4667 63.3333 34.4 63.3333 32C63.3333 29.6 56.6667 28.5333 55.3333 30.6667Z" fill="black"/>
<path d="M11.6 49.0667C8.66667 52.2667 8.66667 54.9333 11.4667 54.4C14.6667 53.8667 16.9333 49.7333 15.2 48C14.2667 47.0667 13.0667 47.3333 11.6 49.0667Z" fill="black"/>
<path d="M48.2667 48.2667C47.0667 49.4667 47.2 50.4 48.9333 52.2667C51.4667 55.0667 54.6667 55.4667 54.6667 52.9333C54.6667 51.8667 53.6 50.1333 52.2667 48.9333C50.4 47.2 49.4667 47.0667 48.2667 48.2667Z" fill="black"/>
<path d="M29.476 56.6716C28.276 59.7383 29.476 63.4716 31.6094 63.4716C32.9427 63.4716 33.6094 62.1383 33.6094 59.6049C33.6094 55.3383 30.8094 53.3383 29.476 56.6716Z" fill="black"/>
</svg>
