<?xml version="1.0" standalone="no"?>
<!DOCTYPE svg PUBLIC "-//W3C//DTD SVG 20010904//EN"
 "http://www.w3.org/TR/2001/REC-SVG-20010904/DTD/svg10.dtd">
<svg version="1.0" xmlns="http://www.w3.org/2000/svg"
 width="48.000000pt" height="48.000000pt" viewBox="0 0 48.000000 48.000000"
 preserveAspectRatio="xMidYMid meet">

<g transform="translate(0.000000,48.000000) scale(0.100000,-0.100000)"
fill="#000000" stroke="none">
<path d="M224 466 c-9 -23 0 -51 16 -51 10 0 15 10 15 29 0 32 -21 47 -31 22z"/>
<path d="M72 407 c-9 -11 -7 -19 12 -36 19 -18 25 -19 34 -8 9 11 7 19 -12 36
-19 18 -25 19 -34 8z"/>
<path d="M367 392 c-13 -14 -14 -21 -5 -30 9 -9 16 -8 30 5 21 19 24 43 5 43
-8 0 -21 -8 -30 -18z"/>
<path d="M196 380 c-106 -32 -136 -174 -52 -248 59 -52 141 -50 198 5 79 76
44 213 -63 243 -39 11 -44 11 -83 0z m89 -46 c31 -14 65 -64 65 -94 0 -7 -7
-27 -16 -45 -19 -41 -73 -69 -114 -60 -37 8 -77 48 -85 85 -9 40 19 95 58 114
40 20 51 20 92 0z"/>
<path d="M5 250 c-4 -7 -3 -16 3 -22 14 -14 57 -6 57 12 0 18 -50 26 -60 10z"/>
<path d="M415 250 c-4 -7 -3 -16 3 -22 14 -14 57 -6 57 12 0 18 -50 26 -60 10z"/>
<path d="M87 112 c-22 -24 -22 -44 -1 -40 24 4 41 35 28 48 -7 7 -16 5 -27 -8z"/>
<path d="M362 118 c-9 -9 -8 -16 5 -30 19 -21 43 -24 43 -5 0 8 -8 21 -18 30
-14 13 -21 14 -30 5z"/>
<path d="M224 56 c-9 -23 0 -51 16 -51 10 0 15 10 15 29 0 32 -21 47 -31 22z"/>
</g>
</svg>
