<?xml version="1.0" standalone="no"?>
<!DOCTYPE svg PUBLIC "-//W3C//DTD SVG 20010904//EN"
 "http://www.w3.org/TR/2001/REC-SVG-20010904/DTD/svg10.dtd">
<svg version="1.0" xmlns="http://www.w3.org/2000/svg"
 width="512.000000pt" height="512.000000pt" viewBox="0 0 512.000000 512.000000"
 preserveAspectRatio="xMidYMid meet">

<g transform="translate(0.000000,512.000000) scale(0.100000,-0.100000)"
fill="#000000" stroke="none">
<path d="M1630 4655 l0 -235 -815 0 -815 0 0 -230 0 -230 1300 0 1300 0 -26
-72 c-71 -199 -203 -464 -336 -678 -73 -118 -253 -360 -327 -440 l-51 -55 -40
45 c-140 157 -336 437 -440 628 l-55 101 -232 1 -232 0 16 -37 c108 -260 353
-642 596 -932 l80 -94 -119 -116 c-65 -64 -332 -327 -592 -585 l-474 -469 163
-163 164 -164 582 582 583 583 363 -363 362 -362 89 236 88 237 -293 293 -293
293 25 30 c13 16 63 77 110 135 295 363 510 744 677 1201 l58 160 337 3 337 2
0 230 0 230 -812 2 -813 3 -3 233 -2 232 -230 0 -230 0 0 -235z"/>
<path d="M3599 3003 c-6 -16 -239 -638 -519 -1383 -280 -745 -511 -1363 -515
-1372 -7 -17 8 -18 226 -18 l234 0 130 348 131 347 554 0 554 0 131 -347 130
-348 232 0 c128 0 233 1 233 3 0 1 -236 630 -524 1397 l-523 1395 -232 3 -231
2 -11 -27z m429 -1100 c100 -269 182 -491 182 -495 0 -5 -166 -8 -370 -8 -203
0 -370 3 -370 8 0 16 364 982 370 982 4 0 88 -219 188 -487z"/>
</g>
</svg>
