<svg width="683" height="683" viewBox="0 0 683 683" fill="none" xmlns="http://www.w3.org/2000/svg">
<path d="M217.333 35V95H0V155H346.667L343.2 164.262C333.733 190.796 316.133 226.129 298.4 254.662C288.667 270.396 264.667 302.662 254.8 313.329L248 320.662L242.667 314.662C224 293.729 197.867 256.396 184 230.929L176.667 217.462L114.8 217.329L116.933 222.262C131.333 256.929 164 307.862 196.4 346.529L207.067 359.062L49.0667 515L92.6667 558.662L248 403.329L344 500L373.5 438L290.133 358.796L293.467 354.796C295.2 352.662 301.867 344.529 308.133 336.796C347.467 288.396 376.133 237.596 398.4 176.662L406.133 155H496V95H279.333L278.667 35H217.333Z" fill="black"/>
<path d="M386.987 669.5L421.666 577.823L421.788 577.5H570.212L570.334 577.823L605.013 669.5H665.945L526.721 297.5H465.681L326.721 669.5H386.987ZM446.199 512.823L495.532 382.156L496 380.918L496.468 382.156L545.801 512.823L546.057 513.5H445.943L446.199 512.823Z" fill="black" stroke="black"/>
</svg>
